<?xml version="1.0" encoding="UTF-8"?>
<!-- Generator: Adobe Illustrator 16.0.0, SVG Export Plug-In . SVG Version: 6.00 Build 0)  -->
<!DOCTYPE svg PUBLIC "-//W3C//DTD SVG 1.1//EN" "http://www.w3.org/Graphics/SVG/1.1/DTD/svg11.dtd">
<svg version="1.1" id="Layer_1" xmlns="http://www.w3.org/2000/svg" xmlns:xlink="http://www.w3.org/1999/xlink" x="0px" y="0px" width="600px" height="600px" viewBox="0 0 600 600" enable-background="new 0 0 600 600" xml:space="preserve">
<g id="_x23_f38756ff">
	<path fill="#0082C5" d="M278.5,61.87c10.17-1.06,20.39-0.91,30.59-0.85c42.74,1.41,84.99,14.7,120.811,38.05   c34.67,22.49,63.33,54.14,82.17,90.93c16.59,32.34,25.72,68.58,25.93,104.95c0.93,43.609-10.83,87.359-33.22,124.78   c-18.96,31.92-45.561,59.22-76.9,79.109c-31.13,19.8-66.94,32.19-103.67,35.74c-40.66,4.05-82.39-2.4-119.76-19.01   c-32.76-14.44-62.14-36.45-85.28-63.771c-22.08-26-38.52-56.8-47.61-89.7c-8.54-30.5-10.66-62.72-6.75-94.129   c4.61-36.56,17.97-71.98,38.68-102.46c24.5-36.43,59.35-65.78,99.4-83.76C226.75,70.97,252.43,64.25,278.5,61.87 M293.31,144.29   c-45.5,45.55-91.05,91.04-136.56,136.59c-3.49,3.68-2.99,10.27,0.81,13.57c3.7,3.439,9.96,3.3,13.47-0.36   c39.91-39.89,79.78-79.82,119.72-119.68c0,90.21,0.01,180.42-0.01,270.63c-0.32,4.89,3.39,9.71,8.32,10.31   c5.53,1,11.27-3.67,11.161-9.34c0.069-90.529,0-181.07,0.029-271.6c39.939,39.86,79.8,79.79,119.71,119.68   c3.67,3.84,10.46,3.8,14.03-0.16c3.569-3.66,3.55-10.09-0.15-13.66c-6.78-6.92-13.71-13.71-20.54-20.59   c-38.86-38.46-77.43-77.25-116.13-115.88C303.48,140.11,296.74,140.37,293.31,144.29z"/>
</g>
<g id="_x23_ffffffff">
	<path fill="#FFFFFF" d="M293.31,144.29c3.43-3.92,10.17-4.18,13.86-0.49c38.7,38.63,77.27,77.42,116.13,115.88   c6.83,6.88,13.76,13.67,20.54,20.59c3.7,3.57,3.72,10,0.15,13.66c-3.57,3.959-10.36,4-14.03,0.16   c-39.91-39.89-79.771-79.82-119.71-119.68c-0.029,90.53,0.04,181.07-0.029,271.6c0.109,5.67-5.631,10.34-11.161,9.34   c-4.93-0.6-8.64-5.42-8.32-10.31c0.02-90.21,0.01-180.42,0.01-270.63c-39.94,39.86-79.81,79.79-119.72,119.68   c-3.51,3.66-9.77,3.8-13.47,0.36c-3.8-3.3-4.3-9.89-0.81-13.57C202.26,235.33,247.81,189.84,293.31,144.29z"/>
</g>
</svg>